{
	"asset":{
		"generator":"Khronos glTF Blender I/O v4.4.56",
		"version":"2.0"
	},
	"scene":0,
	"scenes":[
		{
			"name":"Scene",
			"nodes":[
				11
			]
		}
	],
	"nodes":[
		{
			"name":"Bone.001",
			"rotation":[
				-0.008851394057273865,
				1.2728927686112002e-05,
				0.004033488687127829,
				0.9999526739120483
			],
			"translation":[
				-1.1252659914973151e-10,
				0.3568871319293976,
				-3.597051545511931e-10
			]
		},
		{
			"name":"Bone.003",
			"rotation":[
				5.997848120387061e-07,
				-9.114938137599893e-09,
				0.018139194697141647,
				0.9998354911804199
			],
			"scale":[
				1,
				0.9999999403953552,
				1
			],
			"translation":[
				-9.311283966084716e-10,
				0.10728421807289124,
				-2.1316282072803006e-14
			]
		},
		{
			"children":[
				1
			],
			"name":"Bone.002",
			"rotation":[
				-0.004362206440418959,
				0.004239112604409456,
				0.6970489621162415,
				0.7169977426528931
			],
			"scale":[
				0.9999999403953552,
				1,
				1
			],
			"translation":[
				-0.07798989117145538,
				0.2251063883304596,
				0.0021825020667165518
			]
		},
		{
			"name":"Bone.005",
			"rotation":[
				6.657549533883866e-07,
				7.571323124011542e-08,
				-0.0072366041131317616,
				0.9999738335609436
			],
			"translation":[
				2.09515493843071e-09,
				0.09817452728748322,
				-4.973799150320701e-14
			]
		},
		{
			"children":[
				3
			],
			"name":"Bone.004",
			"rotation":[
				-0.004349665716290474,
				-0.004252677317708731,
				-0.6990799307823181,
				0.7150176763534546
			],
			"scale":[
				1,
				0.9999998807907104,
				0.9999999403953552
			],
			"translation":[
				0.07493419200181961,
				0.22769734263420105,
				0.0021511774975806475
			]
		},
		{
			"name":"Bone.007",
			"rotation":[
				2.998475565618719e-07,
				1.6584397188879052e-09,
				0.05247093364596367,
				0.998622477054596
			],
			"scale":[
				1,
				0.9999999403953552,
				0.9999999403953552
			],
			"translation":[
				-1.8620621711207264e-09,
				0.13986513018608093,
				-3.552713678800501e-14
			]
		},
		{
			"children":[
				5
			],
			"name":"Bone.006",
			"rotation":[
				-0.0007161135436035693,
				0.00603951932862401,
				0.9930703639984131,
				0.11736369132995605
			],
			"scale":[
				1.0000019073486328,
				1,
				1
			],
			"translation":[
				-0.040786635130643845,
				-0.046579986810684204,
				0.005487477406859398
			]
		},
		{
			"name":"Bone.009",
			"rotation":[
				-4.7365224986606336e-07,
				-9.427257197103245e-08,
				0.05812157317996025,
				0.9983094930648804
			],
			"translation":[
				-3.725316943814505e-09,
				0.14977237582206726,
				7.105427357601002e-15
			]
		},
		{
			"children":[
				7
			],
			"name":"Bone.008",
			"rotation":[
				0.9943236708641052,
				0.10622379183769226,
				-0.0006453054957091808,
				0.006047118920832872
			],
			"scale":[
				0.999996542930603,
				0.9999997019767761,
				1
			],
			"translation":[
				0.039745643734931946,
				-0.0464295856654644,
				0.005485749803483486
			]
		},
		{
			"children":[
				0,
				2,
				4,
				6,
				8
			],
			"name":"Bone",
			"rotation":[
				0.006081894505769014,
				-2.3899670850369148e-05,
				-0.004033437930047512,
				0.9999734163284302
			],
			"scale":[
				1,
				0.9999999403953552,
				0.9999999403953552
			],
			"translation":[
				-0.0014135628007352352,
				-0.19044341146945953,
				-0.0049205683171749115
			]
		},
		{
			"mesh":0,
			"name":"Cube",
			"skin":0
		},
		{
			"children":[
				10,
				9
			],
			"name":"Armature"
		}
	],
	"animations":[
		{
			"channels":[
				{
					"sampler":0,
					"target":{
						"node":9,
						"path":"translation"
					}
				},
				{
					"sampler":1,
					"target":{
						"node":9,
						"path":"rotation"
					}
				},
				{
					"sampler":2,
					"target":{
						"node":9,
						"path":"scale"
					}
				},
				{
					"sampler":3,
					"target":{
						"node":0,
						"path":"translation"
					}
				},
				{
					"sampler":4,
					"target":{
						"node":0,
						"path":"rotation"
					}
				},
				{
					"sampler":5,
					"target":{
						"node":0,
						"path":"scale"
					}
				},
				{
					"sampler":6,
					"target":{
						"node":2,
						"path":"translation"
					}
				},
				{
					"sampler":7,
					"target":{
						"node":2,
						"path":"rotation"
					}
				},
				{
					"sampler":8,
					"target":{
						"node":2,
						"path":"scale"
					}
				},
				{
					"sampler":9,
					"target":{
						"node":1,
						"path":"translation"
					}
				},
				{
					"sampler":10,
					"target":{
						"node":1,
						"path":"rotation"
					}
				},
				{
					"sampler":11,
					"target":{
						"node":1,
						"path":"scale"
					}
				},
				{
					"sampler":12,
					"target":{
						"node":4,
						"path":"translation"
					}
				},
				{
					"sampler":13,
					"target":{
						"node":4,
						"path":"rotation"
					}
				},
				{
					"sampler":14,
					"target":{
						"node":4,
						"path":"scale"
					}
				},
				{
					"sampler":15,
					"target":{
						"node":3,
						"path":"translation"
					}
				},
				{
					"sampler":16,
					"target":{
						"node":3,
						"path":"rotation"
					}
				},
				{
					"sampler":17,
					"target":{
						"node":3,
						"path":"scale"
					}
				},
				{
					"sampler":18,
					"target":{
						"node":6,
						"path":"translation"
					}
				},
				{
					"sampler":19,
					"target":{
						"node":6,
						"path":"rotation"
					}
				},
				{
					"sampler":20,
					"target":{
						"node":6,
						"path":"scale"
					}
				},
				{
					"sampler":21,
					"target":{
						"node":5,
						"path":"translation"
					}
				},
				{
					"sampler":22,
					"target":{
						"node":5,
						"path":"rotation"
					}
				},
				{
					"sampler":23,
					"target":{
						"node":5,
						"path":"scale"
					}
				},
				{
					"sampler":24,
					"target":{
						"node":8,
						"path":"translation"
					}
				},
				{
					"sampler":25,
					"target":{
						"node":8,
						"path":"rotation"
					}
				},
				{
					"sampler":26,
					"target":{
						"node":8,
						"path":"scale"
					}
				},
				{
					"sampler":27,
					"target":{
						"node":7,
						"path":"translation"
					}
				},
				{
					"sampler":28,
					"target":{
						"node":7,
						"path":"rotation"
					}
				},
				{
					"sampler":29,
					"target":{
						"node":7,
						"path":"scale"
					}
				}
			],
			"name":"ArmatureAction",
			"samplers":[
				{
					"input":7,
					"interpolation":"STEP",
					"output":8
				},
				{
					"input":7,
					"interpolation":"STEP",
					"output":9
				},
				{
					"input":7,
					"interpolation":"STEP",
					"output":10
				},
				{
					"input":7,
					"interpolation":"STEP",
					"output":11
				},
				{
					"input":7,
					"interpolation":"STEP",
					"output":12
				},
				{
					"input":7,
					"interpolation":"STEP",
					"output":13
				},
				{
					"input":7,
					"interpolation":"STEP",
					"output":14
				},
				{
					"input":15,
					"interpolation":"LINEAR",
					"output":16
				},
				{
					"input":7,
					"interpolation":"STEP",
					"output":17
				},
				{
					"input":7,
					"interpolation":"STEP",
					"output":18
				},
				{
					"input":15,
					"interpolation":"LINEAR",
					"output":19
				},
				{
					"input":7,
					"interpolation":"STEP",
					"output":20
				},
				{
					"input":7,
					"interpolation":"STEP",
					"output":21
				},
				{
					"input":7,
					"interpolation":"STEP",
					"output":22
				},
				{
					"input":7,
					"interpolation":"STEP",
					"output":23
				},
				{
					"input":7,
					"interpolation":"STEP",
					"output":24
				},
				{
					"input":7,
					"interpolation":"STEP",
					"output":25
				},
				{
					"input":7,
					"interpolation":"STEP",
					"output":26
				},
				{
					"input":7,
					"interpolation":"STEP",
					"output":27
				},
				{
					"input":7,
					"interpolation":"STEP",
					"output":28
				},
				{
					"input":7,
					"interpolation":"STEP",
					"output":29
				},
				{
					"input":7,
					"interpolation":"STEP",
					"output":30
				},
				{
					"input":7,
					"interpolation":"STEP",
					"output":31
				},
				{
					"input":7,
					"interpolation":"STEP",
					"output":32
				},
				{
					"input":7,
					"interpolation":"STEP",
					"output":33
				},
				{
					"input":7,
					"interpolation":"STEP",
					"output":34
				},
				{
					"input":7,
					"interpolation":"STEP",
					"output":35
				},
				{
					"input":7,
					"interpolation":"STEP",
					"output":36
				},
				{
					"input":7,
					"interpolation":"STEP",
					"output":37
				},
				{
					"input":7,
					"interpolation":"STEP",
					"output":38
				}
			]
		}
	],
	"meshes":[
		{
			"name":"Cube.002",
			"primitives":[
				{
					"attributes":{
						"POSITION":0,
						"NORMAL":1,
						"TEXCOORD_0":2,
						"JOINTS_0":3,
						"WEIGHTS_0":4
					},
					"indices":5
				}
			]
		}
	],
	"skins":[
		{
			"inverseBindMatrices":6,
			"joints":[
				9,
				0,
				2,
				1,
				4,
				3,
				6,
				5,
				8,
				7
			],
			"name":"Armature"
		}
	],
	"accessors":[
		{
			"bufferView":0,
			"componentType":5126,
			"count":957,
			"max":[
				0.29701659083366394,
				0.5973577499389648,
				0.16220885515213013
			],
			"min":[
				-0.28817370533943176,
				-0.5598191022872925,
				-0.16220885515213013
			],
			"type":"VEC3"
		},
		{
			"bufferView":1,
			"componentType":5126,
			"count":957,
			"type":"VEC3"
		},
		{
			"bufferView":2,
			"componentType":5126,
			"count":957,
			"type":"VEC2"
		},
		{
			"bufferView":3,
			"componentType":5121,
			"count":957,
			"type":"VEC4"
		},
		{
			"bufferView":4,
			"componentType":5126,
			"count":957,
			"type":"VEC4"
		},
		{
			"bufferView":5,
			"componentType":5123,
			"count":5568,
			"type":"SCALAR"
		},
		{
			"bufferView":6,
			"componentType":5126,
			"count":10,
			"type":"MAT4"
		},
		{
			"bufferView":7,
			"componentType":5126,
			"count":2,
			"max":[
				0.4166666666666667
			],
			"min":[
				0
			],
			"type":"SCALAR"
		},
		{
			"bufferView":8,
			"componentType":5126,
			"count":2,
			"type":"VEC3"
		},
		{
			"bufferView":9,
			"componentType":5126,
			"count":2,
			"type":"VEC4"
		},
		{
			"bufferView":10,
			"componentType":5126,
			"count":2,
			"type":"VEC3"
		},
		{
			"bufferView":11,
			"componentType":5126,
			"count":2,
			"type":"VEC3"
		},
		{
			"bufferView":12,
			"componentType":5126,
			"count":2,
			"type":"VEC4"
		},
		{
			"bufferView":13,
			"componentType":5126,
			"count":2,
			"type":"VEC3"
		},
		{
			"bufferView":14,
			"componentType":5126,
			"count":2,
			"type":"VEC3"
		},
		{
			"bufferView":15,
			"componentType":5126,
			"count":11,
			"max":[
				0.4166666666666667
			],
			"min":[
				0
			],
			"type":"SCALAR"
		},
		{
			"bufferView":16,
			"componentType":5126,
			"count":11,
			"type":"VEC4"
		},
		{
			"bufferView":17,
			"componentType":5126,
			"count":2,
			"type":"VEC3"
		},
		{
			"bufferView":18,
			"componentType":5126,
			"count":2,
			"type":"VEC3"
		},
		{
			"bufferView":19,
			"componentType":5126,
			"count":11,
			"type":"VEC4"
		},
		{
			"bufferView":20,
			"componentType":5126,
			"count":2,
			"type":"VEC3"
		},
		{
			"bufferView":21,
			"componentType":5126,
			"count":2,
			"type":"VEC3"
		},
		{
			"bufferView":22,
			"componentType":5126,
			"count":2,
			"type":"VEC4"
		},
		{
			"bufferView":23,
			"componentType":5126,
			"count":2,
			"type":"VEC3"
		},
		{
			"bufferView":24,
			"componentType":5126,
			"count":2,
			"type":"VEC3"
		},
		{
			"bufferView":25,
			"componentType":5126,
			"count":2,
			"type":"VEC4"
		},
		{
			"bufferView":26,
			"componentType":5126,
			"count":2,
			"type":"VEC3"
		},
		{
			"bufferView":27,
			"componentType":5126,
			"count":2,
			"type":"VEC3"
		},
		{
			"bufferView":28,
			"componentType":5126,
			"count":2,
			"type":"VEC4"
		},
		{
			"bufferView":29,
			"componentType":5126,
			"count":2,
			"type":"VEC3"
		},
		{
			"bufferView":30,
			"componentType":5126,
			"count":2,
			"type":"VEC3"
		},
		{
			"bufferView":31,
			"componentType":5126,
			"count":2,
			"type":"VEC4"
		},
		{
			"bufferView":32,
			"componentType":5126,
			"count":2,
			"type":"VEC3"
		},
		{
			"bufferView":33,
			"componentType":5126,
			"count":2,
			"type":"VEC3"
		},
		{
			"bufferView":34,
			"componentType":5126,
			"count":2,
			"type":"VEC4"
		},
		{
			"bufferView":35,
			"componentType":5126,
			"count":2,
			"type":"VEC3"
		},
		{
			"bufferView":36,
			"componentType":5126,
			"count":2,
			"type":"VEC3"
		},
		{
			"bufferView":37,
			"componentType":5126,
			"count":2,
			"type":"VEC4"
		},
		{
			"bufferView":38,
			"componentType":5126,
			"count":2,
			"type":"VEC3"
		}
	],
	"bufferViews":[
		{
			"buffer":0,
			"byteLength":11484,
			"byteOffset":0,
			"target":34962
		},
		{
			"buffer":0,
			"byteLength":11484,
			"byteOffset":11484,
			"target":34962
		},
		{
			"buffer":0,
			"byteLength":7656,
			"byteOffset":22968,
			"target":34962
		},
		{
			"buffer":0,
			"byteLength":3828,
			"byteOffset":30624,
			"target":34962
		},
		{
			"buffer":0,
			"byteLength":15312,
			"byteOffset":34452,
			"target":34962
		},
		{
			"buffer":0,
			"byteLength":11136,
			"byteOffset":49764,
			"target":34963
		},
		{
			"buffer":0,
			"byteLength":640,
			"byteOffset":60900
		},
		{
			"buffer":0,
			"byteLength":8,
			"byteOffset":61540
		},
		{
			"buffer":0,
			"byteLength":24,
			"byteOffset":61548
		},
		{
			"buffer":0,
			"byteLength":32,
			"byteOffset":61572
		},
		{
			"buffer":0,
			"byteLength":24,
			"byteOffset":61604
		},
		{
			"buffer":0,
			"byteLength":24,
			"byteOffset":61628
		},
		{
			"buffer":0,
			"byteLength":32,
			"byteOffset":61652
		},
		{
			"buffer":0,
			"byteLength":24,
			"byteOffset":61684
		},
		{
			"buffer":0,
			"byteLength":24,
			"byteOffset":61708
		},
		{
			"buffer":0,
			"byteLength":44,
			"byteOffset":61732
		},
		{
			"buffer":0,
			"byteLength":176,
			"byteOffset":61776
		},
		{
			"buffer":0,
			"byteLength":24,
			"byteOffset":61952
		},
		{
			"buffer":0,
			"byteLength":24,
			"byteOffset":61976
		},
		{
			"buffer":0,
			"byteLength":176,
			"byteOffset":62000
		},
		{
			"buffer":0,
			"byteLength":24,
			"byteOffset":62176
		},
		{
			"buffer":0,
			"byteLength":24,
			"byteOffset":62200
		},
		{
			"buffer":0,
			"byteLength":32,
			"byteOffset":62224
		},
		{
			"buffer":0,
			"byteLength":24,
			"byteOffset":62256
		},
		{
			"buffer":0,
			"byteLength":24,
			"byteOffset":62280
		},
		{
			"buffer":0,
			"byteLength":32,
			"byteOffset":62304
		},
		{
			"buffer":0,
			"byteLength":24,
			"byteOffset":62336
		},
		{
			"buffer":0,
			"byteLength":24,
			"byteOffset":62360
		},
		{
			"buffer":0,
			"byteLength":32,
			"byteOffset":62384
		},
		{
			"buffer":0,
			"byteLength":24,
			"byteOffset":62416
		},
		{
			"buffer":0,
			"byteLength":24,
			"byteOffset":62440
		},
		{
			"buffer":0,
			"byteLength":32,
			"byteOffset":62464
		},
		{
			"buffer":0,
			"byteLength":24,
			"byteOffset":62496
		},
		{
			"buffer":0,
			"byteLength":24,
			"byteOffset":62520
		},
		{
			"buffer":0,
			"byteLength":32,
			"byteOffset":62544
		},
		{
			"buffer":0,
			"byteLength":24,
			"byteOffset":62576
		},
		{
			"buffer":0,
			"byteLength":24,
			"byteOffset":62600
		},
		{
			"buffer":0,
			"byteLength":32,
			"byteOffset":62624
		},
		{
			"buffer":0,
			"byteLength":24,
			"byteOffset":62656
		}
	],
	"buffers":[
		{
			"byteLength":62680,
			"uri":"guy.bin"
		}
	]
}
